<?xml version="1.0" encoding="UTF-8" standalone="no"?>
<!-- Created with Inkscape (http://www.inkscape.org/) -->

<svg
   width="10.583mm"
   height="12.7mm"
   version="1.1"
   viewBox="0 0 10.583 12.7"
   id="svg4009"
   sodipodi:docname="tree.svg"
   inkscape:version="1.1.2 (0a00cf5339, 2022-02-04)"
   xmlns:inkscape="http://www.inkscape.org/namespaces/inkscape"
   xmlns:sodipodi="http://sodipodi.sourceforge.net/DTD/sodipodi-0.dtd"
   xmlns="http://www.w3.org/2000/svg"
   xmlns:svg="http://www.w3.org/2000/svg">
  <defs
     id="defs4013" />
  <sodipodi:namedview
     id="namedview4011"
     pagecolor="#ffffff"
     bordercolor="#666666"
     borderopacity="1.0"
     inkscape:pageshadow="2"
     inkscape:pageopacity="0.0"
     inkscape:pagecheckerboard="0"
     inkscape:document-units="mm"
     showgrid="false"
     inkscape:zoom="16.6875"
     inkscape:cx="20.014981"
     inkscape:cy="28.794007"
     inkscape:window-width="1920"
     inkscape:window-height="1011"
     inkscape:window-x="0"
     inkscape:window-y="0"
     inkscape:window-maximized="1"
     inkscape:current-layer="g3983" />
  <g
     id="g3983">
    <path
       d="M 10.583,5.2917 C 10.583,8.2142 7.1245272,10.866773 5.2913,12.7 3.4750077,10.883708 -4e-4,8.2142 -4e-4,5.2917 -4e-4,2.3692 2.3688,0 5.2913,0 8.2138,0 10.583,2.3692 10.583,5.2917 Z"
       fill="#009100"
       stop-color="#000000"
       stroke-width="1.0369"
       id="path3979"
       sodipodi:nodetypes="scsss" />
    <circle
       cx="5.2916999"
       cy="5.2916999"
       r="4.454751"
       fill="#ffffff"
       stop-color="#000000"
       style="font-variation-settings:normal;stroke-width:0.972865;-inkscape-stroke:none"
       id="circle3981" />
  </g>
  <g
     transform="matrix(0.93625043,0,0,0.93625043,-36.042548,-64.947813)"
     id="g4007">
    <g
       transform="matrix(1.0055,0,0,1.0055,0.049766,-0.26008)"
       fill="#009100"
       id="g4005">
      <ellipse
         cx="42.256001"
         cy="73.049004"
         rx="1.5499001"
         ry="1.4875"
         id="ellipse3985" />
      <ellipse
         cx="43.790001"
         cy="72.973999"
         rx="1.6985"
         ry="1.9765"
         id="ellipse3987" />
      <ellipse
         cx="44.853001"
         cy="72.533997"
         rx="1.47"
         ry="1.8099999"
         id="ellipse3989" />
      <ellipse
         cx="43.641998"
         cy="71.911003"
         rx="1.374"
         ry="1.4595"
         id="ellipse3991" />
      <ellipse
         cx="46.001999"
         cy="74.018997"
         rx="1.0069"
         ry="1.1038001"
         id="ellipse3993" />
      <ellipse
         cx="45.923"
         cy="72.958"
         rx="0.80822003"
         ry="1.1108"
         id="ellipse3995" />
      <ellipse
         cx="42.289001"
         cy="74.278999"
         rx="0.81686997"
         ry="1.0815001"
         id="ellipse3997" />
      <ellipse
         cx="44.724998"
         cy="74.721001"
         rx="1.76"
         ry="0.70032001"
         id="ellipse3999" />
      <ellipse
         cx="43.855"
         cy="74.235001"
         rx="2.8220999"
         ry="1.4204"
         id="ellipse4001" />
      <path
         d="m 43.418,74.759 c 0.19122,2.2703 0.27808,3.7171 -0.90407,4.3485 l 1.4912,-0.11287 1.1106,0.10278 c -0.99346,-0.77836 -0.43237,-2.7786 -0.84118,-4.2635"
         id="path4003" />
    </g>
  </g>
</svg>
